<mxfile host="Electron" modified="2023-09-10T20:14:04.687Z" agent="Mozilla/5.0 (Windows NT 10.0; Win64; x64) AppleWebKit/537.36 (KHTML, like Gecko) draw.io/21.6.8 Chrome/114.0.5735.289 Electron/25.5.0 Safari/537.36" etag="2NC24S2laF1de3NSqjYj" version="21.6.8" type="device">
  <diagram name="Page-1" id="p5Pnos50zGSVEL5wyQk3">
    <mxGraphModel dx="708" dy="439" grid="1" gridSize="10" guides="1" tooltips="1" connect="1" arrows="1" fold="1" page="1" pageScale="1" pageWidth="1169" pageHeight="827" math="0" shadow="0">
      <root>
        <mxCell id="0" />
        <mxCell id="1" parent="0" />
        <mxCell id="qciUSj_UeatDdK0IdHiZ-9" style="edgeStyle=orthogonalEdgeStyle;rounded=0;orthogonalLoop=1;jettySize=auto;html=1;entryX=0;entryY=0.5;entryDx=0;entryDy=0;exitX=1;exitY=0.25;exitDx=0;exitDy=0;" edge="1" parent="1" source="qciUSj_UeatDdK0IdHiZ-1" target="qciUSj_UeatDdK0IdHiZ-3">
          <mxGeometry relative="1" as="geometry" />
        </mxCell>
        <mxCell id="qciUSj_UeatDdK0IdHiZ-1" value="Input files" style="swimlane;whiteSpace=wrap;html=1;" vertex="1" parent="1">
          <mxGeometry x="40" y="200" width="120" height="280" as="geometry">
            <mxRectangle x="40" y="200" width="80" height="30" as="alternateBounds" />
          </mxGeometry>
        </mxCell>
        <mxCell id="qciUSj_UeatDdK0IdHiZ-4" value="video1.mp4" style="text;html=1;align=center;verticalAlign=middle;resizable=0;points=[];autosize=1;strokeColor=none;fillColor=none;rounded=0;" vertex="1" parent="qciUSj_UeatDdK0IdHiZ-1">
          <mxGeometry x="15" y="40" width="90" height="30" as="geometry" />
        </mxCell>
        <mxCell id="qciUSj_UeatDdK0IdHiZ-6" value="video2.mp4" style="text;html=1;align=center;verticalAlign=middle;resizable=0;points=[];autosize=1;strokeColor=none;fillColor=none;rounded=0;" vertex="1" parent="qciUSj_UeatDdK0IdHiZ-1">
          <mxGeometry x="15" y="70" width="90" height="30" as="geometry" />
        </mxCell>
        <mxCell id="qciUSj_UeatDdK0IdHiZ-7" value="..." style="text;html=1;align=center;verticalAlign=middle;resizable=0;points=[];autosize=1;strokeColor=none;fillColor=none;rounded=0;" vertex="1" parent="qciUSj_UeatDdK0IdHiZ-1">
          <mxGeometry x="45" y="100" width="30" height="30" as="geometry" />
        </mxCell>
        <mxCell id="qciUSj_UeatDdK0IdHiZ-8" value="video100.mp4" style="text;html=1;align=center;verticalAlign=middle;resizable=0;points=[];autosize=1;strokeColor=none;fillColor=none;rounded=0;" vertex="1" parent="qciUSj_UeatDdK0IdHiZ-1">
          <mxGeometry x="10" y="130" width="100" height="30" as="geometry" />
        </mxCell>
        <mxCell id="qciUSj_UeatDdK0IdHiZ-2" value="Output files" style="swimlane;whiteSpace=wrap;html=1;" vertex="1" parent="1">
          <mxGeometry x="560" y="200" width="120" height="280" as="geometry">
            <mxRectangle x="600" y="200" width="80" height="30" as="alternateBounds" />
          </mxGeometry>
        </mxCell>
        <mxCell id="qciUSj_UeatDdK0IdHiZ-17" style="edgeStyle=orthogonalEdgeStyle;rounded=0;orthogonalLoop=1;jettySize=auto;html=1;entryX=0;entryY=0.25;entryDx=0;entryDy=0;" edge="1" parent="1" source="qciUSj_UeatDdK0IdHiZ-3" target="qciUSj_UeatDdK0IdHiZ-2">
          <mxGeometry relative="1" as="geometry" />
        </mxCell>
        <mxCell id="qciUSj_UeatDdK0IdHiZ-3" value="&lt;font style=&quot;font-size: 10px;&quot;&gt;&lt;b&gt;files&lt;/b&gt;: video1.mp4&lt;br&gt;&lt;b&gt;instruction&lt;/b&gt;: segment&lt;br&gt;&lt;b&gt;parameters&lt;/b&gt;: 30 60&lt;br&gt;&lt;/font&gt;" style="rounded=0;whiteSpace=wrap;html=1;align=left;glass=0;shadow=0;" vertex="1" parent="1">
          <mxGeometry x="300" y="240" width="120" height="60" as="geometry" />
        </mxCell>
        <mxCell id="qciUSj_UeatDdK0IdHiZ-15" value="&lt;h1 style=&quot;&quot;&gt;Segment&lt;/h1&gt;" style="text;html=1;strokeColor=none;fillColor=none;align=left;verticalAlign=middle;whiteSpace=wrap;rounded=0;" vertex="1" parent="1">
          <mxGeometry x="40" y="120" width="280" height="40" as="geometry" />
        </mxCell>
        <mxCell id="qciUSj_UeatDdK0IdHiZ-18" value="&lt;font style=&quot;font-size: 7px;&quot;&gt;* Start at 30s for a duration of 60s&lt;/font&gt;" style="text;html=1;strokeColor=none;fillColor=none;align=left;verticalAlign=middle;whiteSpace=wrap;rounded=0;" vertex="1" parent="1">
          <mxGeometry x="300" y="300" width="120" height="20" as="geometry" />
        </mxCell>
      </root>
    </mxGraphModel>
  </diagram>
</mxfile>
